<?xml version="1.0" encoding="UTF-8" standalone="no"?>
<!-- Created with Inkscape (http://www.inkscape.org/) -->

<svg
   xmlns:dc="http://purl.org/dc/elements/1.1/"
   xmlns:cc="http://creativecommons.org/ns#"
   xmlns:rdf="http://www.w3.org/1999/02/22-rdf-syntax-ns#"
   xmlns:svg="http://www.w3.org/2000/svg"
   xmlns="http://www.w3.org/2000/svg"
   xmlns:sodipodi="http://sodipodi.sourceforge.net/DTD/sodipodi-0.dtd"
   xmlns:inkscape="http://www.inkscape.org/namespaces/inkscape"
   id="svg3390"
   version="1.1"
   inkscape:version="0.91 r13725"
   width="128"
   height="128"
   viewBox="0 0 438.43958 438.43958"
   sodipodi:docname="github.svg">
  <path
     d="M 140.00951,429.50114 C 109.40021,417.50575 86.58459,402.64731 64.091321,380.06019 27.841285,343.65889 5.9646947,297.92684 0.83453249,247.82463 -0.70472344,232.79195 0.15864487,202.21286 2.5108836,188.45103 6.618684,164.41823 12.67642,145.88562 23.127078,125.37931 49.641384,73.352852 95.249355,34.059208 150.22573,15.877202 173.21345,8.2746114 191.32479,5.5685227 219.21979,5.5685227 c 27.895,0 46.00634,2.7060887 68.99406,10.3086793 33.86394,11.19962 63.20098,29.665685 88.60294,55.770726 31.54436,32.417472 51.38006,71.610622 59.11416,116.803102 2.30702,13.48047 3.2193,44.94929 1.71784,59.25589 -5.29627,50.46531 -27.02322,95.87956 -63.35214,132.42031 -22.38295,22.51347 -47.10843,38.49812 -77.05312,49.8137 -10.36999,3.91863 -15.72503,4.3585 -19.25525,1.58162 -4.41363,-3.47176 -4.36076,-2.98926 -4.87199,-44.46261 -0.41087,-33.33316 -0.69301,-39.69477 -1.95267,-44.02814 -1.99962,-6.87898 -5.15382,-12.97473 -9.2195,-17.81749 -3.92026,-4.66953 -4.52749,-4.18745 7.37082,-5.85161 20.10294,-2.81168 37.70584,-9.23935 52.23596,-19.07386 21.48649,-14.54282 33.23532,-38.20095 36.48021,-73.45871 2.4552,-26.67718 -2.75191,-47.25272 -16.5493,-65.39351 l -5.196,-6.83169 1.09698,-3.8724 c 3.60625,-12.73026 4.24179,-22.47009 2.20837,-33.84385 -1.35969,-7.60538 -4.47227,-18.25685 -5.81799,-19.909613 -1.2075,-1.483004 -8.35693,-1.341668 -14.66765,0.28997 -10.14177,2.62216 -24.83202,9.466643 -38.85625,18.103913 l -6.19221,3.81367 -9.22168,-2.19181 c -28.09751,-6.67823 -63.13367,-6.67823 -91.23118,0 l -9.22168,2.19181 -6.19221,-3.79122 c -13.58027,-8.31459 -27.47926,-14.71565 -38.71544,-17.83004 -6.06206,-1.680259 -12.91782,-2.147497 -14.69268,-1.001346 -1.27265,0.821834 -4.16402,10.281836 -5.835223,19.091686 -2.189492,11.54206 -1.548462,22.1577 2.120553,35.11694 l 1.10771,3.91252 -3.912982,4.80408 c -13.330835,16.36667 -19.597573,37.28673 -18.277435,61.01504 0.999494,17.96504 3.474695,30.21265 8.819848,43.64176 4.661092,11.71049 9.300913,18.9311 17.375789,27.04069 14.70428,14.76749 36.92486,24.75684 62.80587,28.23462 12.07505,1.6226 11.42885,1.12409 7.50914,5.79296 -5.28796,6.29864 -10.36796,18.1979 -10.36796,24.28562 0,4.05317 -24.56981,8.79081 -35.10942,6.76992 -6.66835,-1.2786 -14.71415,-5.46129 -19.52685,-10.15122 -2.26655,-2.20873 -6.45958,-7.49475 -9.31784,-11.74672 -10.953972,-16.29521 -25.837024,-25.42819 -38.344433,-23.53004 -2.183371,0.33135 -4.352992,0.98568 -4.821379,1.45407 -1.210993,1.21099 1.343899,5.30465 5.120846,8.20503 1.701298,1.30645 5.044284,3.85955 7.428857,5.67354 6.280376,4.77762 12.435367,13.63261 18.781884,27.02093 4.581548,9.66501 6.40568,12.56472 10.289445,16.3565 10.1001,9.86084 24.79289,13.90093 46.99085,12.92109 6.64707,-0.29341 13.33796,-0.77383 14.86865,-1.06761 l 2.78306,-0.53416 0,22.01821 c 0,18.60496 -0.21702,22.47554 -1.39996,24.9684 -3.12974,6.59544 -10.01502,7.0696 -23.8617,1.64327 z"
     id="path3472"
     inkscape:connector-curvature="0" />
</svg>
